<svg xmlns="http://www.w3.org/2000/svg" viewBox="0 0 99.28 99.28"><defs><style>.b232e8c7-c8b8-4b2a-8da1-e0e04e7a9803{fill:#ed1e79;}.eba751c2-1b96-4018-93e1-375189eb62bc{fill:#36b9ed;}.bab15d56-4e6b-46de-a8e4-f078ebf7418f{fill:#fadc13;}.b4f6bf5e-a6a1-475e-a011-8cbc5b9fc18e{fill:#fff;}.a27f8425-744c-4e99-a56f-1774acc3e0a6{fill:#770f3d;}.b4a39818-d1f8-4794-bcca-40dc51ded0f9{fill:none;}</style></defs><title>gem1</title><g id="ea2c8d1d-902e-4630-b327-b79b01ccceb0" data-name="Layer 2"><g id="a0cf1625-a6fc-429b-879d-641047850244" data-name="Layer 7"><polygon class="b232e8c7-c8b8-4b2a-8da1-e0e04e7a9803" points="27.87 53.26 32.11 41.7 22.82 35.72 24.08 46.05 27.87 53.26"/><path class="eba751c2-1b96-4018-93e1-375189eb62bc" d="M30.83,26.41l-7.39,6.8,10.42,6.71,26.52-4.39,5.4-8.29L40.12,25.82Zm17,2.18a1.1,1.1,0,0,1,0,2.2A1.1,1.1,0,0,1,47.8,28.59Zm-4.88,2.2-5.5-.15a1.1,1.1,0,0,1,0-2.19l5.5.14A1.1,1.1,0,0,1,42.92,30.79Z"/><path class="bab15d56-4e6b-46de-a8e4-f078ebf7418f" d="M49.31,55.68,43,40.88,34.5,42.29,29.4,56.18,42.74,81.53l8.64-23.28ZM36.4,65.51,33,61.11c-.85-1.1.69-2.67,1.56-1.55C35.68,61,36.81,62.49,38,64,38.81,65.06,37.26,66.63,36.4,65.51Zm3.1,3.74a1.1,1.1,0,0,1,0-2.2A1.1,1.1,0,0,1,39.5,69.25Z"/><path class="b232e8c7-c8b8-4b2a-8da1-e0e04e7a9803" d="M53.5,62.53l-8.91,21,4.65,1.08,10.45-15Zm-.45,11.6a1.1,1.1,0,0,1,0-2.19A1.1,1.1,0,0,1,53.05,74.13Z"/><path class="eba751c2-1b96-4018-93e1-375189eb62bc" d="M45.5,40.47l5.92,13.94,9.95,12.36.45-.87,7.32-18L60.63,38ZM55.86,55.69a1.1,1.1,0,0,1,0-2.19A1.1,1.1,0,0,1,55.86,55.69Zm6.72-2.93a1.1,1.1,0,0,1,0,2.2A1.1,1.1,0,0,1,62.58,52.76Zm-1.83,7a1.1,1.1,0,0,1,0-2.19A1.1,1.1,0,0,1,60.75,59.72Z"/><polygon class="b232e8c7-c8b8-4b2a-8da1-e0e04e7a9803" points="69.78 44.86 70.84 34.67 67.93 28.42 62.64 36.55 69.78 44.86"/><polygon class="b4f6bf5e-a6a1-475e-a011-8cbc5b9fc18e" points="24.08 46.05 22.82 35.72 21.18 34.67 22.48 46.76 27.25 54.95 27.87 53.26 24.08 46.05"/><polygon class="b4f6bf5e-a6a1-475e-a011-8cbc5b9fc18e" points="40.12 25.82 30.33 25.28 21.74 32.12 23.44 33.22 30.83 26.41 40.12 25.82"/><polygon class="b4f6bf5e-a6a1-475e-a011-8cbc5b9fc18e" points="28.85 57.69 42.74 81.53 29.4 56.18 28.85 57.69"/><polygon class="b4f6bf5e-a6a1-475e-a011-8cbc5b9fc18e" points="70.39 49.32 69.14 47.86 61.82 65.91 70.39 49.32"/><polygon class="b4f6bf5e-a6a1-475e-a011-8cbc5b9fc18e" points="69.78 44.86 70.8 46.05 71.66 34.56 67.93 28.42 70.84 34.67 69.78 44.86"/><polygon class="b4f6bf5e-a6a1-475e-a011-8cbc5b9fc18e" points="59.69 69.62 60.08 69.06 53.16 60.47 44.59 83.57 53.51 62.53 59.69 69.62"/><path class="a27f8425-744c-4e99-a56f-1774acc3e0a6" d="M69,24.48,29.38,22.29,17.89,31.44,19.64,47.7l6.3,10.82h0L41.93,86l8.58,2L63,70,73.46,49.75l1.2-15.91Zm2.7,10.08L70.8,46.05l-1-1.19-7.14-8.31,5.29-8.13ZM70.39,49.32,61.82,65.9l-.45.87L51.42,54.41,45.5,40.47,60.63,38l8.51,9.9Zm-10-13.79L33.86,39.92,23.44,33.21l-1.7-1.09,8.59-6.84,9.79.54,25.66,1.42ZM22.49,46.76,21.18,34.67l1.64,1,9.29,6L27.87,53.26,27.25,55Zm6.36,10.93.55-1.51,5.1-13.89L43,40.88l6.28,14.8,2.07,2.57L42.74,81.53Zm20.39,27-4.65-1.08,8.58-23.1,6.91,8.59-.39.56Z"/><path class="a27f8425-744c-4e99-a56f-1774acc3e0a6" d="M37.42,28.45a1.1,1.1,0,0,0,0,2.19l5.5.15a1.1,1.1,0,0,0,0-2.2Z"/><path class="a27f8425-744c-4e99-a56f-1774acc3e0a6" d="M47.8,30.79a1.1,1.1,0,0,0,0-2.2A1.1,1.1,0,0,0,47.8,30.79Z"/><path class="a27f8425-744c-4e99-a56f-1774acc3e0a6" d="M60.75,59.72a1.1,1.1,0,0,0,0-2.19A1.1,1.1,0,0,0,60.75,59.72Z"/><path class="a27f8425-744c-4e99-a56f-1774acc3e0a6" d="M55.86,53.5a1.1,1.1,0,0,0,0,2.19A1.1,1.1,0,0,0,55.86,53.5Z"/><path class="a27f8425-744c-4e99-a56f-1774acc3e0a6" d="M62.58,55a1.1,1.1,0,0,0,0-2.2A1.1,1.1,0,0,0,62.58,55Z"/><path class="a27f8425-744c-4e99-a56f-1774acc3e0a6" d="M34.54,59.56c-.87-1.12-2.41.45-1.56,1.55l3.42,4.4c.86,1.12,2.41-.45,1.55-1.55C36.81,62.49,35.68,61,34.54,59.56Z"/><path class="a27f8425-744c-4e99-a56f-1774acc3e0a6" d="M39.5,67.05a1.1,1.1,0,0,0,0,2.2A1.1,1.1,0,0,0,39.5,67.05Z"/><path class="a27f8425-744c-4e99-a56f-1774acc3e0a6" d="M53.05,71.94a1.1,1.1,0,0,0,0,2.19A1.1,1.1,0,0,0,53.05,71.94Z"/><polygon class="b4f6bf5e-a6a1-475e-a011-8cbc5b9fc18e" points="23.92 15.87 21.74 19.89 23.92 23.44 26.09 19.89 23.92 15.87"/><polygon class="b4f6bf5e-a6a1-475e-a011-8cbc5b9fc18e" points="28.96 10.54 27.87 12.55 28.96 14.32 30.05 12.55 28.96 10.54"/><polygon class="b4f6bf5e-a6a1-475e-a011-8cbc5b9fc18e" points="15.77 13.97 14.68 15.99 15.77 17.76 16.86 15.99 15.77 13.97"/><polygon class="b4f6bf5e-a6a1-475e-a011-8cbc5b9fc18e" points="64.75 74.62 66.92 70.6 64.75 67.05 62.58 70.6 64.75 74.62"/><polygon class="b4f6bf5e-a6a1-475e-a011-8cbc5b9fc18e" points="59.95 83.42 61.26 81.41 59.95 79.64 58.64 81.41 59.95 83.42"/><polygon class="b4f6bf5e-a6a1-475e-a011-8cbc5b9fc18e" points="70.84 68.94 71.93 66.93 70.84 65.16 69.76 66.93 70.84 68.94"/><rect class="b4a39818-d1f8-4794-bcca-40dc51ded0f9" width="99.28" height="99.28"/></g></g></svg>