<svg xmlns="http://www.w3.org/2000/svg" viewBox="0 0 99.28 99.28"><defs><style>.f0882695-ad63-498a-81b8-9230d27b3253{fill:none;}.ad2fc365-011c-4a7f-a087-01568c419bff{fill:#36b9ed;}.a0f82d9f-9ea5-450f-a39a-a9b14f6db784{fill:#ed1e79;}.b047a82f-02a1-433f-b497-f1a4418480e2{fill:#fadc13;}.fa67622d-6a5e-496b-8938-2c7634e18b1c{fill:#fff;}.b37b7748-ec6c-41ce-aed9-a34dcc684012{fill:#770f3d;}</style></defs><title>gem2</title><g id="f74bb9c6-b21e-4dfe-95af-d7e941c267eb" data-name="Layer 2"><g id="b10656a4-8d3a-49ec-a5ad-1da4ad802982" data-name="Layer 7"><rect class="f0882695-ad63-498a-81b8-9230d27b3253" width="99.28" height="99.28"/><polygon class="ad2fc365-011c-4a7f-a087-01568c419bff" points="52.18 25.64 52.59 28.73 62.03 32.8 62.41 25.94 60.24 24.5 60.25 24.54 52.18 25.64"/><polygon class="a0f82d9f-9ea5-450f-a39a-a9b14f6db784" points="45.23 25.57 50.4 27.79 50.09 25.44 41.58 21.17 40.96 28.2 45.23 25.57"/><path class="b047a82f-02a1-433f-b497-f1a4418480e2" d="M51.21,23.71l6.5-.89-7.51-5-6.7,2Zm-.64-4.22a.92.92,0,0,1,0,1.84A.92.92,0,0,1,50.57,19.49Z"/><path class="ad2fc365-011c-4a7f-a087-01568c419bff" d="M44.31,55.69l2.8-6.93L30.57,39.34,26,58.22Zm-13.54-12a.92.92,0,0,1,0,1.83A.92.92,0,0,1,30.77,43.66Zm-1.31,4.07c.21-1.16,2-.67,1.77.49-.39,2.11-.79,4.22-1.18,6.33-.22,1.16-2,.66-1.77-.49Q28.87,50.9,29.46,47.73Z"/><path class="b047a82f-02a1-433f-b497-f1a4418480e2" d="M31.91,37.75l16.81,9.58,9.74,1,9.08-10.5L45.43,28.32Zm4.37.6a.92.92,0,0,1,0-1.84A.92.92,0,0,1,36.28,38.35ZM51.2,33.88a57.91,57.91,0,0,1,9.08,4.37c1,.63.08,2.22-.92,1.59a54.27,54.27,0,0,0-8.65-4.18C49.63,35.21,50.11,33.44,51.2,33.88ZM48,31.81a.92.92,0,0,1,0,1.84A.92.92,0,0,1,48,31.81Z"/><polygon class="a0f82d9f-9ea5-450f-a39a-a9b14f6db784" points="51.09 85.22 46.41 79.61 43.82 89.1 46.9 88.1 51.09 85.22"/><path class="a0f82d9f-9ea5-450f-a39a-a9b14f6db784" d="M67.86,77l4.59-10.83-3.64-4.07-9.45,7-2.2,9.63,10.23-.87Zm-1.29-3.63a.92.92,0,0,1,0-1.83A.92.92,0,0,1,66.57,73.33Z"/><polygon class="b047a82f-02a1-433f-b497-f1a4418480e2" points="37.46 81.58 41.87 88.47 44.29 79.61 37.46 81.58"/><polygon class="ad2fc365-011c-4a7f-a087-01568c419bff" points="50.33 65.22 47.06 77.21 52.51 83.73 56 68.7 50.33 65.22"/><path class="ad2fc365-011c-4a7f-a087-01568c419bff" d="M66.77,61l-8.86-9.6-8.86-2-5.65,14L50,62.14l8.32,5.1ZM53,52a.92.92,0,0,1,0,1.84A.92.92,0,0,1,53,52Zm1,6.6a.92.92,0,0,1,0-1.83A.92.92,0,0,1,54,58.56Zm5-4.49a.92.92,0,0,1,0,1.84A.92.92,0,0,1,59,54.07Z"/><path class="ad2fc365-011c-4a7f-a087-01568c419bff" d="M72.35,63,68.57,39.77,60.24,49.4ZM67.73,49.58a.92.92,0,0,1,0,1.84A.92.92,0,0,1,67.73,49.58Z"/><path class="b047a82f-02a1-433f-b497-f1a4418480e2" d="M48.29,65l-8.61,1.58-2.63,13,7.87-2.26Zm-7.94,9.2c-.16.71-.32,1.41-.47,2.12a.92.92,0,1,1-1.77-.49l.46-2.12A.94.94,0,0,1,39.7,73,1,1,0,0,1,40.35,74.15Zm-.46-2.38a.92.92,0,0,1,0-1.84A.92.92,0,0,1,39.89,71.77Z"/><polygon class="a0f82d9f-9ea5-450f-a39a-a9b14f6db784" points="41.02 63.79 43.42 57.87 26.7 60.19 35.28 71.99 36.89 64.55 41.02 63.79"/><polygon class="fa67622d-6a5e-496b-8938-2c7634e18b1c" points="40.96 28.2 41.58 21.17 40.56 20.66 39.83 28.9 40.96 28.2"/><polygon class="fa67622d-6a5e-496b-8938-2c7634e18b1c" points="43.5 19.85 50.2 17.84 42.79 19.5 43.5 19.85"/><polygon class="fa67622d-6a5e-496b-8938-2c7634e18b1c" points="26 58.22 30.57 39.34 29.65 38.82 24.91 58.37 26 58.22"/><polygon class="fa67622d-6a5e-496b-8938-2c7634e18b1c" points="31 37.23 31.91 37.75 45.43 28.32 31 37.23"/><polygon class="fa67622d-6a5e-496b-8938-2c7634e18b1c" points="25.44 60.36 35.03 73.13 35.28 71.99 26.7 60.19 25.44 60.36"/><polygon class="fa67622d-6a5e-496b-8938-2c7634e18b1c" points="36.49 81.86 41.87 88.47 37.46 81.58 36.49 81.86"/><polygon class="fa67622d-6a5e-496b-8938-2c7634e18b1c" points="38.94 66.67 36.09 79.85 37.05 79.57 39.68 66.53 38.94 66.67"/><polygon class="fa67622d-6a5e-496b-8938-2c7634e18b1c" points="73.41 67.21 72.45 66.13 67.86 76.96 73.41 67.21"/><polygon class="fa67622d-6a5e-496b-8938-2c7634e18b1c" points="72.89 63.57 68.57 39.77 72.35 62.95 72.89 63.57"/><polygon class="fa67622d-6a5e-496b-8938-2c7634e18b1c" points="66.77 61.02 67.44 60.53 58.38 50.38 49.05 49.41 57.91 51.42 66.77 61.02"/><polygon class="fa67622d-6a5e-496b-8938-2c7634e18b1c" points="52.09 86.41 51.09 85.22 46.9 88.1 52.09 86.41"/><polygon class="fa67622d-6a5e-496b-8938-2c7634e18b1c" points="56 68.7 52.51 83.73 53.28 84.65 56.81 69.19 56 68.7"/><path class="b37b7748-ec6c-41ce-aed9-a34dcc684012" d="M70.45,36.43l-6-2.6.51-9.15L50.68,15.22,38.34,18,37.23,30.51l-9.51,5.87L22,59.89,34.35,76.3l-1.16,5.38,8.66,10.64L55,88l1.57-6.87,12.29-1,7.21-12.66Zm2.44,27.14L72.35,63,60.24,49.4l8.33-9.63ZM52.51,83.73l-5.45-6.52,3.27-12L56,68.7l.81.49L53.28,84.65ZM36.09,79.85l2.85-13.18.74-.14L48.29,65,44.92,77.31l-7.87,2.26Zm5.48-58.68,8.52,4.27.31,2.35-5.17-2.22L41,28.2l-1.13.7.73-8.24Zm-11,18.17,16.54,9.42-2.8,6.93L26,58.22l-1.09.15,4.74-19.55ZM35.28,72,35,73.13,25.44,60.36l1.26-.17,16.72-2.32L41,63.79l-4.13.76ZM50,62.14l-6.6,1.22,5.65-14,9.33,1,9.06,10.15-.67.49-8.45,6.22Zm17.54-24.3-9.08,10.5-9.74-1L31.91,37.75,31,37.23l14.43-8.91Zm-5.12-11.9L62,32.8l-9.44-4.07-.41-3.09,8.07-1.1v0Zm-4.71-3.12-6.5.89L43.5,19.85l-.71-.35,7.41-1.66Zm-21.22,59,1-.28,6.83-2-2.42,8.86Zm9.92-2.25,4.69,5.61,1,1.19L46.9,88.1l-3.08,1ZM59.36,69l9.45-7,3.64,4.07,1,1.08L67.86,77l-.47.82-10.23.87Z"/><path class="b37b7748-ec6c-41ce-aed9-a34dcc684012" d="M48,33.65a.92.92,0,0,0,0-1.84A.92.92,0,0,0,48,33.65Z"/><path class="b37b7748-ec6c-41ce-aed9-a34dcc684012" d="M50.71,35.66a54.27,54.27,0,0,1,8.65,4.18c1,.63,1.92-1,.92-1.59a57.91,57.91,0,0,0-9.08-4.37C50.11,33.44,49.63,35.21,50.71,35.66Z"/><path class="b37b7748-ec6c-41ce-aed9-a34dcc684012" d="M53,52a.92.92,0,0,0,0,1.84A.92.92,0,0,0,53,52Z"/><path class="b37b7748-ec6c-41ce-aed9-a34dcc684012" d="M59,55.91a.92.92,0,0,0,0-1.84A.92.92,0,0,0,59,55.91Z"/><path class="b37b7748-ec6c-41ce-aed9-a34dcc684012" d="M54,56.73a.92.92,0,0,0,0,1.83A.92.92,0,0,0,54,56.73Z"/><path class="b37b7748-ec6c-41ce-aed9-a34dcc684012" d="M66.57,71.5a.92.92,0,0,0,0,1.83A.92.92,0,0,0,66.57,71.5Z"/><path class="b37b7748-ec6c-41ce-aed9-a34dcc684012" d="M39.7,73a.94.94,0,0,0-1.13.64l-.46,2.12a.92.92,0,1,0,1.77.49c.15-.71.31-1.41.47-2.12A1,1,0,0,0,39.7,73Z"/><path class="b37b7748-ec6c-41ce-aed9-a34dcc684012" d="M39.89,69.93a.92.92,0,0,0,0,1.84A.92.92,0,0,0,39.89,69.93Z"/><path class="b37b7748-ec6c-41ce-aed9-a34dcc684012" d="M30.05,54.55c.39-2.11.79-4.22,1.18-6.33.21-1.16-1.56-1.65-1.77-.49q-.6,3.17-1.18,6.33C28.06,55.21,29.83,55.71,30.05,54.55Z"/><path class="b37b7748-ec6c-41ce-aed9-a34dcc684012" d="M30.77,45.49a.92.92,0,0,0,0-1.83A.92.92,0,0,0,30.77,45.49Z"/><path class="b37b7748-ec6c-41ce-aed9-a34dcc684012" d="M36.28,36.51a.92.92,0,0,0,0,1.84A.92.92,0,0,0,36.28,36.51Z"/><path class="b37b7748-ec6c-41ce-aed9-a34dcc684012" d="M67.73,51.42a.92.92,0,0,0,0-1.84A.92.92,0,0,0,67.73,51.42Z"/><path class="b37b7748-ec6c-41ce-aed9-a34dcc684012" d="M50.57,21.33a.92.92,0,0,0,0-1.84A.92.92,0,0,0,50.57,21.33Z"/><polygon class="fa67622d-6a5e-496b-8938-2c7634e18b1c" points="31 19.16 32.81 15.79 31 12.82 29.18 15.79 31 19.16"/><polygon class="fa67622d-6a5e-496b-8938-2c7634e18b1c" points="24.88 33.68 27.74 28.38 24.88 23.71 22.02 28.38 24.88 33.68"/><polygon class="fa67622d-6a5e-496b-8938-2c7634e18b1c" points="35.88 25.28 37.45 22.37 35.88 19.8 34.31 22.37 35.88 25.28"/><polygon class="fa67622d-6a5e-496b-8938-2c7634e18b1c" points="77.67 46.4 79.24 43.48 77.67 40.91 76.09 43.48 77.67 46.4"/><polygon class="fa67622d-6a5e-496b-8938-2c7634e18b1c" points="69.73 59.47 72.31 54.7 69.73 50.5 67.16 54.7 69.73 59.47"/></g></g></svg>