<svg xmlns="http://www.w3.org/2000/svg" viewBox="0 0 99.28 99.28"><defs><style>.e6534cc7-fb36-443d-90a1-5916de8bbaa4{fill:none;}.bcb3db10-dcaa-4c89-95da-6b46c70586a8{fill:#fadc13;}.a8e5d38a-03eb-489d-a141-c5da8c21ee82{fill:#36b9ed;}.fab9cfe9-6828-4aa7-a0ec-e5d0deb89af7{fill:#ed1e79;}.bf75c2c3-c899-429d-b33f-3645070994a5{fill:#fff;}.bbf808e9-8e52-4af6-9186-6a7a7b2adb68{fill:#770f3d;}</style></defs><title>gem3</title><g id="ec580d05-aa38-4808-929d-3a01d9ce7561" data-name="Layer 2"><g id="ebc2e239-5391-412f-afb7-5efa7994ca2b" data-name="Layer 7"><rect class="e6534cc7-fb36-443d-90a1-5916de8bbaa4" width="99.28" height="99.28"/><path class="bcb3db10-dcaa-4c89-95da-6b46c70586a8" d="M60.14,79.67l8.27-9.83L51.16,50.05,47.53,59.7Zm3-9.15a1,1,0,0,1,0,1.93A1,1,0,0,1,63.14,70.52Z"/><path class="a8e5d38a-03eb-489d-a141-c5da8c21ee82" d="M47.61,46l-13.53-.85L27.8,71.68l9.28,9.72L49.56,48.22ZM34.24,59.51Q33,64.33,31.49,69c-.39,1.17-2.25.67-1.86-.51q1.55-4.71,2.75-9.52A1,1,0,0,1,34.24,59.51Zm.16-2a1,1,0,0,1,0-1.93A1,1,0,0,1,34.4,57.54Z"/><path class="fab9cfe9-6828-4aa7-a0ec-e5d0deb89af7" d="M57.56,80.18,46.76,63.69,40.28,82.07l17.88-1.52-.19-.3Zm-12.43-.81a1,1,0,0,1,0-1.93A1,1,0,0,1,45.13,79.37Z"/><path class="bcb3db10-dcaa-4c89-95da-6b46c70586a8" d="M47.54,43.83l10.86-18-9.57-3L35,43Zm1.34-16.11a1,1,0,0,1,0,1.93A1,1,0,0,1,48.88,27.72Zm-3.09,3.09c.69-1,2.36-.06,1.67,1l-3.7,5.57c-.69,1-2.36.07-1.67-1Q43.95,33.6,45.79,30.81Z"/><path class="fab9cfe9-6828-4aa7-a0ec-e5d0deb89af7" d="M49.45,44.82,67.62,65.66l-8.43-37Zm3.72,1.67a1,1,0,0,1,0-1.93A1,1,0,0,1,53.17,46.49Zm2.46-4.72a1,1,0,0,1,0,1.93A1,1,0,0,1,55.63,41.77Zm1.29,7.51a1,1,0,0,1,0-1.93A1,1,0,0,1,56.92,49.28Z"/><polygon class="bf75c2c3-c899-429d-b33f-3645070994a5" points="32.87 45.06 26.8 70.63 27.8 71.68 34.08 45.13 32.87 45.06"/><polygon class="bf75c2c3-c899-429d-b33f-3645070994a5" points="35.04 43.05 48.83 22.89 34.1 42.98 35.04 43.05"/><polygon class="bf75c2c3-c899-429d-b33f-3645070994a5" points="60.21 79.78 69.25 70.8 68.42 69.84 60.15 79.67 60.21 79.78"/><polygon class="bf75c2c3-c899-429d-b33f-3645070994a5" points="59.53 28.12 59.19 28.69 67.62 65.67 68.54 66.72 59.53 28.12"/><polygon class="bf75c2c3-c899-429d-b33f-3645070994a5" points="57.55 80.18 57.97 80.25 46.59 62.22 39.08 82.17 40.28 82.06 46.76 63.69 57.55 80.18"/><path class="bbf808e9-8e52-4af6-9186-6a7a7b2adb68" d="M61.22,24,47.84,19.89,30.63,43.37,24,71.4,36.89,84.94l23.82-2L72.28,71.42Zm6.4,41.63L49.45,44.82l9.74-16.13.34-.57,9,38.6Zm.79,4.18.84,1-9,9-.07-.11-12.61-20,3.63-9.65Zm-10-44-10.86,18L35,43l-.94,0,14.73-20.1ZM27.8,71.68l-1-1.05,6.07-25.57,1.21.07L47.61,46l2,2.24L37.08,81.4ZM40.28,82.07l-1.2.1,7.51-20L58,80.25l.19.3Z"/><path class="bbf808e9-8e52-4af6-9186-6a7a7b2adb68" d="M43.76,37.36l3.7-5.57c.69-1-1-2-1.67-1q-1.84,2.79-3.7,5.58C41.4,37.43,43.07,38.39,43.76,37.36Z"/><path class="bbf808e9-8e52-4af6-9186-6a7a7b2adb68" d="M48.88,29.65a1,1,0,0,0,0-1.93A1,1,0,0,0,48.88,29.65Z"/><path class="bbf808e9-8e52-4af6-9186-6a7a7b2adb68" d="M53.17,44.56a1,1,0,0,0,0,1.93A1,1,0,0,0,53.17,44.56Z"/><path class="bbf808e9-8e52-4af6-9186-6a7a7b2adb68" d="M55.63,41.77a1,1,0,0,0,0,1.93A1,1,0,0,0,55.63,41.77Z"/><path class="bbf808e9-8e52-4af6-9186-6a7a7b2adb68" d="M56.92,47.35a1,1,0,0,0,0,1.93A1,1,0,0,0,56.92,47.35Z"/><path class="bbf808e9-8e52-4af6-9186-6a7a7b2adb68" d="M32.38,59q-1.2,4.8-2.75,9.52c-.39,1.18,1.47,1.68,1.86.51q1.55-4.71,2.75-9.52A1,1,0,0,0,32.38,59Z"/><path class="bbf808e9-8e52-4af6-9186-6a7a7b2adb68" d="M34.4,55.61a1,1,0,0,0,0,1.93A1,1,0,0,0,34.4,55.61Z"/><path class="bbf808e9-8e52-4af6-9186-6a7a7b2adb68" d="M63.14,72.45a1,1,0,0,0,0-1.93A1,1,0,0,0,63.14,72.45Z"/><path class="bbf808e9-8e52-4af6-9186-6a7a7b2adb68" d="M45.13,77.44a1,1,0,0,0,0,1.93A1,1,0,0,0,45.13,77.44Z"/><polygon class="bf75c2c3-c899-429d-b33f-3645070994a5" points="26.99 32.01 25.08 35.55 26.99 38.66 28.9 35.55 26.99 32.01"/><polygon class="bf75c2c3-c899-429d-b33f-3645070994a5" points="33.06 36.82 30.44 41.68 33.06 45.95 35.68 41.68 33.06 36.82"/><polygon class="bf75c2c3-c899-429d-b33f-3645070994a5" points="74.9 65.13 72.28 69.99 74.9 74.26 77.52 69.99 74.9 65.13"/><polygon class="bf75c2c3-c899-429d-b33f-3645070994a5" points="70.77 58.42 69.25 61.22 70.77 63.69 72.28 61.22 70.77 58.42"/><polygon class="bf75c2c3-c899-429d-b33f-3645070994a5" points="32.8 29.35 31.55 31.66 32.8 33.7 34.05 31.66 32.8 29.35"/></g></g></svg>