<svg xmlns="http://www.w3.org/2000/svg" viewBox="0 0 99.28 99.28"><defs><style>.f5a68a09-e751-45b7-9988-4e76ccfdfb13{fill:none;}.e76396fe-7247-468c-93eb-da4ea2ec99b3{fill:#fadc13;}.e72611f2-33f4-4614-90ac-2f3e8d6c12f4{fill:#36b9ed;}.a072da24-4030-4464-a502-a78e67289785{fill:#ed1e79;}.e04fd832-2038-4823-91ac-436062131b67{fill:#fff;}.f899e5f6-59ea-49a7-9d55-79ea37ac49f6{fill:#770f3d;}</style></defs><title>gem4</title><g id="a4bc538b-4f4a-4aae-b18c-4db672ee42f0" data-name="Layer 2"><g id="a03ac5bc-6da1-419f-9e40-11b78a27c364" data-name="Layer 7"><rect class="f5a68a09-e751-45b7-9988-4e76ccfdfb13" width="99.28" height="99.28"/><path class="e76396fe-7247-468c-93eb-da4ea2ec99b3" d="M71.37,47.32l-4.8-3.55-1.23,10.1,5.29,7ZM69.15,51a1,1,0,0,1,0-1.93A1,1,0,0,1,69.15,51Z"/><polygon class="e72611f2-33f4-4614-90ac-2f3e8d6c12f4" points="53.2 40.77 48.2 16.95 43.6 16.95 50.33 40.77 53.2 40.77"/><path class="e72611f2-33f4-4614-90ac-2f3e8d6c12f4" d="M42.94,57.13,31.7,77.26l22.05,9.2ZM37.41,77a1,1,0,0,1,0-1.93A1,1,0,0,1,37.41,77Zm1.07-3.76a1,1,0,0,1,0-1.93A1,1,0,0,1,38.48,73.26ZM41,79.16a1,1,0,0,1,0-1.93A1,1,0,0,1,41,79.16Z"/><polygon class="a072da24-4030-4464-a502-a78e67289785" points="51.18 71.44 56.38 86.44 63.14 81.22 51.18 71.44"/><polygon class="e72611f2-33f4-4614-90ac-2f3e8d6c12f4" points="61.55 59.91 64 69.74 69.59 63.08 64.26 56 61.55 59.91"/><path class="e76396fe-7247-468c-93eb-da4ea2ec99b3" d="M48.1,40.77l-5.65-20L34.11,67.91Zm-6-2.36a1,1,0,0,1,0,1.93A1,1,0,0,1,42.12,38.41Z"/><polygon class="a072da24-4030-4464-a502-a78e67289785" points="60.86 57.13 63.19 53.78 64.38 43.95 58.55 47.85 60.86 57.13"/><path class="e76396fe-7247-468c-93eb-da4ea2ec99b3" d="M44.56,52.32l5.28,15.25L62.41,77.85,54.09,42.91H49.41ZM56.28,63.18a1,1,0,0,1,0-1.93A1,1,0,0,1,56.28,63.18Zm-2.2-14.73a63.33,63.33,0,0,0,2.6,9.86c.42,1.18-1.45,1.68-1.86.51A63.36,63.36,0,0,1,52.21,49C52,47.75,53.86,47.23,54.08,48.45Z"/><polygon class="e04fd832-2038-4823-91ac-436062131b67" points="34.11 67.91 42.45 20.77 32.93 70.2 34.11 67.91"/><polygon class="e04fd832-2038-4823-91ac-436062131b67" points="54.13 40.77 48.2 16.95 53.2 40.77 54.13 40.77"/><polygon class="e04fd832-2038-4823-91ac-436062131b67" points="56.38 86.44 56.54 86.9 63.78 81.75 63.14 81.22 56.38 86.44"/><polygon class="e04fd832-2038-4823-91ac-436062131b67" points="63.62 78.85 54.67 42.91 54.09 42.91 62.41 77.85 63.62 78.85"/><polygon class="e04fd832-2038-4823-91ac-436062131b67" points="53.76 86.46 54.18 86.63 43.2 54.96 31.7 77.26 42.94 57.13 53.76 86.46"/><polygon class="e04fd832-2038-4823-91ac-436062131b67" points="70.63 60.89 71.15 61.58 72.51 47.01 66.57 43.77 71.37 47.32 70.63 60.89"/><polygon class="e04fd832-2038-4823-91ac-436062131b67" points="64.1 70.11 70.57 64.38 69.59 63.08 64 69.74 64.1 70.11"/><polygon class="e04fd832-2038-4823-91ac-436062131b67" points="58.55 47.85 64.38 43.95 58.33 46.97 58.55 47.85"/><path class="f899e5f6-59ea-49a7-9d55-79ea37ac49f6" d="M75.23,45.56l-9.48-5.17-8.06,4-7.48-30H41.06L28.65,78.78l27.58,11.5,11-7.79L64.8,72.93l8.59-7.61Zm-8.66-1.79L72.51,47,71.15,61.58l-.52-.69-5.29-7Zm-10,43.13-.16-.46-5.2-15,12,9.78.64.53Zm-2.45-44h.58l8.95,35.94-1.21-1L49.84,67.57,44.56,52.32l4.85-9.41ZM70.57,64.38,64.1,70.11l-.1-.37-2.45-9.83L64.26,56l5.33,7.08Zm-7.38-10.6-2.33,3.35-2.31-9.28L58.33,47l6-3ZM48.2,17l5.93,23.81h-3.8L43.6,17Zm-.1,23.81-14,27.14L32.93,70.2l9.52-49.43ZM43.2,55l11,31.67-.43-.17-22-9.2Z"/><path class="f899e5f6-59ea-49a7-9d55-79ea37ac49f6" d="M54.82,58.82c.41,1.17,2.28.67,1.86-.51a63.33,63.33,0,0,1-2.6-9.86c-.22-1.22-2.08-.7-1.87.51A63.36,63.36,0,0,0,54.82,58.82Z"/><path class="f899e5f6-59ea-49a7-9d55-79ea37ac49f6" d="M56.28,63.18a1,1,0,0,0,0-1.93A1,1,0,0,0,56.28,63.18Z"/><path class="f899e5f6-59ea-49a7-9d55-79ea37ac49f6" d="M37.41,75.09a1,1,0,0,0,0,1.93A1,1,0,0,0,37.41,75.09Z"/><path class="f899e5f6-59ea-49a7-9d55-79ea37ac49f6" d="M38.48,71.33a1,1,0,0,0,0,1.93A1,1,0,0,0,38.48,71.33Z"/><path class="f899e5f6-59ea-49a7-9d55-79ea37ac49f6" d="M41,77.23a1,1,0,0,0,0,1.93A1,1,0,0,0,41,77.23Z"/><path class="f899e5f6-59ea-49a7-9d55-79ea37ac49f6" d="M69.15,49a1,1,0,0,0,0,1.93A1,1,0,0,0,69.15,49Z"/><path class="f899e5f6-59ea-49a7-9d55-79ea37ac49f6" d="M42.12,40.34a1,1,0,0,0,0-1.93A1,1,0,0,0,42.12,40.34Z"/><polygon class="e04fd832-2038-4823-91ac-436062131b67" points="28.65 35.08 26.74 38.62 28.65 41.73 30.56 38.62 28.65 35.08"/><polygon class="e04fd832-2038-4823-91ac-436062131b67" points="66.57 75.52 64.66 79.06 66.57 82.17 68.48 79.06 66.57 75.52"/><polygon class="e04fd832-2038-4823-91ac-436062131b67" points="70.65 73.85 69.46 76.05 70.65 77.98 71.83 76.05 70.65 73.85"/><polygon class="e04fd832-2038-4823-91ac-436062131b67" points="31.7 42.31 30.54 44.47 31.7 46.37 32.86 44.47 31.7 42.31"/><polygon class="e04fd832-2038-4823-91ac-436062131b67" points="34.11 31.03 32.95 33.18 34.11 35.08 35.27 33.18 34.11 31.03"/></g></g></svg>